# xmcd
#
# Track frame offsets:
#	150
#	17817
#	43783
#	76529
#	102167
#	130495
#	144655
#	164122
#	188728
#	214063
#	239468
#	283362
#
# Disc length: 4555 seconds
#
# Revision: 0
# Processed by: cddbd v1.5.2PL0 Copyright (c) Steve Scherf et al.
# Submitted via: EZCDAudioConverter 1.2.1.1
#
DISCID=b111c90c
DTITLE=Willy Michl - Bluesmann Live - Die Antwort
DYEAR=1983
DGENRE=Blues
TTITLE0=Intro
TTITLE1=Uns geht's gut
TTITLE2=Sag mir, daﬂ es Dir gut geht
TTITLE3=Stoned
TTITLE4=Vision
TTITLE5=Isarflimmern
TTITLE6=Una Bella Signorina
TTITLE7=Da dea ma uns ned owe
TTITLE8=Zirkusplatz
TTITLE9=Bluesmann
TTITLE10=Die Antwort
TTITLE11=Caribean Raggae
EXTD=
EXTT0=
EXTT1=
EXTT2=
EXTT3=
EXTT4=
EXTT5=
EXTT6=
EXTT7=
EXTT8=
EXTT9=
EXTT10=
EXTT11=
PLAYORDER=
